# xmcd CD database file
#
# Track frame offsets:
#	150
#	12756
#	25343
#	38520
#	48699
#	59547
#	70389
#	82989
#	96570
#	110753
#	123936
#	135748
#	148071
#	159906
#	173185
#	187387
#	200641
#	212155
#	226668
#	240317
#	255490
#	268674
#	279837
#	292873
#
# Disc length: 4078 seconds
#
# Revision: 4
# Processed by: cddbd v1.4PL0 Copyright (c) Steve Scherf et al.
# Submitted via: CDex 1.51
#
DISCID=5e0fec18
DTITLE=Various Artist - Swing tanzen verboten - German Swing Dance and Jazz Bands 1937 - 1944
DYEAR=2003
DGENRE=Jazz
TTITLE0=Erhard Bauschke and Orchester - Nachtexpress nach Warschau
TTITLE1=Erhard Bauschke and Orchester - Everybody sing
TTITLE2=Erhard Bauschke and Orchester - Rosalie
TTITLE3=Erhard Bauschke and Orchester - Ich möchte reich sein
TTITLE4=Albert Vossen - Esprit
TTITLE5=Kurt Hohenberger and Solisten Orchester - The man with the mandolin
TTITLE6=Kurt Hohenberger and Solisten Orchester - Warum, weshalb und wieso?
TTITLE7=Willy Berking und seine Solisten - Fermate
TTITLE8=Willy Berking und seine Solisten - Legato
TTITLE9=Willy Berking und seine Solisten - Rhythmus
TTITLE10=Willy Berking und seine Solisten - Tempo, Tempo
TTITLE11=Willy Berking und seine Solisten - Tip - Top
TTITLE12=Tanzorchester Oscar Joost - Am Montag fängt die Woche an
TTITLE13=Hot Club Frankfurt - Stomp
TTITLE14=Michael Jary und sein Kammer Tanzorchester - Jungfrau
TTITLE15=Tanzorchester Michael Jary - Hallo, Fräulein
TTITLE16=Helmuth Zacharias und seine Solisten - Bei Dir war es immer so schön
TTITLE17=Teddy Kleindin und sein Tanzorchester - Allerschönste aller Frauen
TTITLE18=Willi Stanke und sein Orchester - Der Schwarze Panther
TTITLE19=Willi Stanke und sein Orchester - FD Hamburg - Berlin
TTITLE20=Willi Stanke und sein Orchester - Lilo
TTITLE21=Willi Stanke und sein Orchester - Grand Hotel
TTITLE22=Willi Stech und sein großes Unterhaltungsorchester - Karussell
TTITLE23=Tanzorchester Fud Candrix - Was geschah in dieser Nacht?
EXTD=YEAR: 2003
EXTT0=
EXTT1=
EXTT2=
EXTT3=
EXTT4=
EXTT5=
EXTT6=
EXTT7=
EXTT8=
EXTT9=
EXTT10=
EXTT11=
EXTT12=
EXTT13=
EXTT14=
EXTT15=
EXTT16=
EXTT17=
EXTT18=
EXTT19=
EXTT20=
EXTT21=
EXTT22=
EXTT23=
PLAYORDER=
